<svg version="1.1" id="Layer_1" xmlns="http://www.w3.org/2000/svg" xmlns:xlink="http://www.w3.org/1999/xlink" x="0px" y="0px"
	 width="100%" viewBox="0 0 898 496" enable-background="new 0 0 898 496" xml:space="preserve">
<path fill="#FFFEFF" opacity="1.000000" stroke="none" 
	d="
M592.000000,497.000000 
	C394.666656,497.000000 197.833328,497.000000 1.000000,497.000000 
	C1.000000,331.666656 1.000000,166.333328 1.000000,1.000000 
	C300.333344,1.000000 599.666687,1.000000 899.000000,1.000000 
	C899.000000,166.333328 899.000000,331.666656 899.000000,497.000000 
	C796.833313,497.000000 694.666687,497.000000 592.000000,497.000000 
M7.002821,112.542862 
	C8.295567,124.953979 15.072114,128.992477 25.995388,123.755402 
	C58.995457,107.933807 92.386185,93.032516 127.104156,81.325096 
	C153.005447,72.590797 179.365540,65.843262 206.653641,62.944069 
	C237.560577,59.660408 267.638916,64.606789 296.767090,73.798569 
	C327.475006,83.488869 357.552887,95.237679 387.692841,106.650101 
	C423.831116,120.333771 460.730316,130.426590 499.460236,132.918442 
	C536.530579,135.303528 573.379883,132.390030 610.081177,127.654961 
	C661.196533,121.060196 710.996887,108.507462 760.118225,93.126991 
	C766.844299,91.020958 769.539795,86.096596 768.122498,78.743637 
	C766.914612,72.476929 764.101135,70.598961 756.510010,70.999748 
	C755.345459,71.061234 754.179199,71.112526 753.018433,71.219437 
	C723.010925,73.983002 693.040283,77.272278 662.986572,79.372414 
	C634.529053,81.361023 605.874695,81.528534 577.939453,75.018150 
	C549.635132,68.421753 521.546875,60.725929 493.691589,52.413818 
	C448.305511,38.870457 403.562408,23.146608 357.073547,13.443348 
	C308.048218,3.210671 259.043335,1.844909 209.891586,12.596808 
	C137.572067,28.416639 72.459991,59.951107 12.600723,102.900200 
	C9.978862,104.781395 8.842837,108.733444 7.002821,112.542862 
M482.746338,174.794922 
	C443.286835,162.303925 403.946198,149.427444 363.479126,140.399719 
	C308.678223,128.174301 253.996155,127.095764 199.192139,140.624588 
	C131.415253,157.355881 69.991302,187.445557 13.340462,227.798172 
	C6.389525,232.749344 5.032341,239.250580 9.359244,246.376404 
	C13.110105,252.553513 17.499620,253.401016 25.645634,249.513153 
	C59.265892,233.467056 93.236343,218.246490 128.624634,206.440750 
	C156.158920,197.255142 184.159103,190.082047 213.247955,188.063980 
	C241.213287,186.123871 268.572021,190.547211 294.979645,198.921646 
	C324.724304,208.354324 353.973206,219.429688 383.158752,230.524521 
	C415.139526,242.681961 447.568634,252.880249 481.672424,256.883575 
	C520.814697,261.478333 559.876343,259.084869 598.838928,254.683731 
	C639.249695,250.119019 678.971924,241.843399 718.149109,230.986710 
	C732.563293,226.992310 746.910339,222.744522 761.218323,218.383438 
	C767.187317,216.564072 769.696533,210.675949 768.023376,203.726578 
	C766.646423,198.007599 763.354553,196.042938 756.883667,196.618484 
	C722.549561,199.672302 688.241760,203.129349 653.859314,205.494827 
	C629.387268,207.178497 604.642517,206.840744 580.735840,201.171875 
	C548.096436,193.432297 515.905701,183.800110 482.746338,174.794922 
M776.500000,493.005310 
	C794.831299,493.001862 813.163757,493.125732 831.493530,492.957672 
	C848.363159,492.803009 855.064453,487.474548 856.161987,470.874817 
	C857.314026,453.450256 856.838501,435.910553 856.851562,418.420990 
	C856.859924,407.267700 857.064148,396.062042 856.102234,384.973389 
	C854.790527,369.852386 848.687683,364.155579 833.588440,363.993744 
	C802.763672,363.663330 771.930481,363.653839 741.105774,363.980316 
	C725.272400,364.148010 718.578674,370.627563 717.984436,386.576477 
	C717.271484,405.714355 717.461304,424.888214 717.401245,444.046936 
	C717.374146,452.706451 717.374634,461.386597 717.914307,470.022919 
	C718.926941,486.229248 725.613770,492.547058 742.005127,492.921722 
	C753.164856,493.176819 764.334717,492.992920 776.500000,493.005310 
M648.389526,471.823059 
	C648.389526,463.684998 648.389526,455.546906 648.389526,446.962616 
	C642.268677,445.618744 635.749207,444.187347 628.643799,442.627319 
	C628.643799,453.833099 628.643799,464.253113 628.643799,474.645081 
	C600.659363,474.645081 573.123413,474.645081 545.802856,474.645081 
	C545.802856,443.396973 545.802856,412.502319 545.802856,381.569580 
	C573.591003,381.569580 600.982361,381.569580 628.767822,381.569580 
	C628.767822,386.534668 628.767822,391.169373 628.767822,395.804108 
	C628.767822,400.579498 628.767822,405.354858 628.767822,410.563141 
	C635.908813,409.122498 642.358093,407.821381 649.305298,406.419830 
	C648.924133,398.573303 648.978455,391.066101 648.109741,383.667297 
	C646.474731,369.740295 640.698059,364.242188 626.477539,364.044861 
	C600.328308,363.682098 574.166809,363.678864 548.017578,364.042358 
	C533.565613,364.243256 526.408203,370.706787 526.085754,385.072021 
	C525.443420,413.694977 525.396301,442.352051 526.032104,470.974396 
	C526.364441,485.933411 532.994934,492.382599 547.859497,492.709595 
	C574.168030,493.288391 600.508057,493.283478 626.816162,492.690582 
	C641.148987,492.367584 646.525757,486.519867 648.389526,471.823059 
M200.885941,387.360901 
	C183.094818,422.398682 165.303696,457.436462 147.243668,493.003845 
	C152.846710,493.003845 157.526840,492.736877 162.160004,493.088562 
	C165.845779,493.368347 167.768188,492.205750 169.293732,488.735626 
	C172.902451,480.526855 177.130875,472.592560 180.872391,464.438812 
	C182.015045,461.948700 183.379974,461.093567 186.129105,461.106201 
	C210.789474,461.219513 235.450851,461.227753 260.111053,461.095947 
	C262.912048,461.080994 264.196716,462.045685 265.321411,464.455963 
	C269.326263,473.038452 273.507111,481.540283 277.742188,490.012238 
	C278.326294,491.180695 279.559814,492.826111 280.544952,492.863220 
	C287.239502,493.115234 293.948059,492.995026 301.159332,492.995026 
	C299.973206,490.666351 299.161682,489.055145 298.334534,487.451965 
	C279.739532,451.409698 261.154205,415.362457 242.533478,379.333496 
	C239.875107,374.189850 238.236298,367.060608 233.966629,364.606415 
	C229.427094,361.997101 222.304169,363.598022 216.340057,363.923828 
	C214.541122,364.022095 212.133926,365.593933 211.226532,367.186554 
	C207.611389,373.531677 204.478180,380.151398 200.885941,387.360901 
M115.499626,381.229431 
	C121.930016,381.229431 128.360397,381.229431 134.791565,381.229431 
	C134.791565,375.096680 134.791565,369.536499 134.791565,364.168396 
	C96.607948,364.168396 58.750488,364.168396 21.072641,364.168396 
	C21.072641,407.281860 21.072641,449.997009 21.072641,492.729797 
	C27.786945,492.729797 34.195354,492.729797 41.029938,492.729797 
	C41.029938,475.405182 41.029938,458.346313 41.029938,440.752502 
	C59.156273,440.752502 76.856468,440.752502 94.423119,440.752502 
	C94.423119,434.799591 94.423119,429.395447 94.423119,423.579468 
	C76.481468,423.579468 58.891041,423.579468 41.285133,423.579468 
	C41.285133,409.269531 41.285133,395.393860 41.285133,381.229462 
	C65.922897,381.229462 90.211349,381.229462 115.499626,381.229431 
M431.500000,474.989136 
	C413.719391,474.989136 395.938782,474.989136 377.815186,474.989136 
	C377.815186,437.757812 377.815186,401.000214 377.815186,364.052399 
	C370.891144,364.052399 364.317047,364.052399 357.712341,364.052399 
	C357.712341,407.119843 357.712341,449.881744 357.712341,492.641785 
	C394.827026,492.641785 431.693329,492.641785 468.566223,492.641785 
	C468.566223,486.669098 468.566223,481.067474 468.566223,474.989136 
	C456.396576,474.989136 444.448303,474.989136 431.500000,474.989136 
z"/>
<path fill="#027DBA" opacity="1.000000" stroke="none" 
	d="
M7.008756,112.131866 
	C8.842837,108.733444 9.978862,104.781395 12.600723,102.900200 
	C72.459991,59.951107 137.572067,28.416639 209.891586,12.596808 
	C259.043335,1.844909 308.048218,3.210671 357.073547,13.443348 
	C403.562408,23.146608 448.305511,38.870457 493.691589,52.413818 
	C521.546875,60.725929 549.635132,68.421753 577.939453,75.018150 
	C605.874695,81.528534 634.529053,81.361023 662.986572,79.372414 
	C693.040283,77.272278 723.010925,73.983002 753.018433,71.219437 
	C754.179199,71.112526 755.345459,71.061234 756.510010,70.999748 
	C764.101135,70.598961 766.914612,72.476929 768.122498,78.743637 
	C769.539795,86.096596 766.844299,91.020958 760.118225,93.126991 
	C710.996887,108.507462 661.196533,121.060196 610.081177,127.654961 
	C573.379883,132.390030 536.530579,135.303528 499.460236,132.918442 
	C460.730316,130.426590 423.831116,120.333771 387.692841,106.650101 
	C357.552887,95.237679 327.475006,83.488869 296.767090,73.798569 
	C267.638916,64.606789 237.560577,59.660408 206.653641,62.944069 
	C179.365540,65.843262 153.005447,72.590797 127.104156,81.325096 
	C92.386185,93.032516 58.995457,107.933807 25.995388,123.755402 
	C15.072114,128.992477 8.295567,124.953979 7.008756,112.131866 
z"/>
<path fill="#EA0B2B" opacity="1.000000" stroke="none" 
	d="
M483.134491,174.887115 
	C515.905701,183.800110 548.096436,193.432297 580.735840,201.171875 
	C604.642517,206.840744 629.387268,207.178497 653.859314,205.494827 
	C688.241760,203.129349 722.549561,199.672302 756.883667,196.618484 
	C763.354553,196.042938 766.646423,198.007599 768.023376,203.726578 
	C769.696533,210.675949 767.187317,216.564072 761.218323,218.383438 
	C746.910339,222.744522 732.563293,226.992310 718.149109,230.986710 
	C678.971924,241.843399 639.249695,250.119019 598.838928,254.683731 
	C559.876343,259.084869 520.814697,261.478333 481.672424,256.883575 
	C447.568634,252.880249 415.139526,242.681961 383.158752,230.524521 
	C353.973206,219.429688 324.724304,208.354324 294.979645,198.921646 
	C268.572021,190.547211 241.213287,186.123871 213.247955,188.063980 
	C184.159103,190.082047 156.158920,197.255142 128.624634,206.440750 
	C93.236343,218.246490 59.265892,233.467056 25.645634,249.513153 
	C17.499620,253.401016 13.110105,252.553513 9.359244,246.376404 
	C5.032341,239.250580 6.389525,232.749344 13.340462,227.798172 
	C69.991302,187.445557 131.415253,157.355881 199.192139,140.624588 
	C253.996155,127.095764 308.678223,128.174301 363.479126,140.399719 
	C403.946198,149.427444 443.286835,162.303925 483.134491,174.887115 
z"/>
<path fill="#11204B" opacity="1.000000" stroke="none" 
	d="
M776.000000,493.005310 
	C764.334717,492.992920 753.164856,493.176819 742.005127,492.921722 
	C725.613770,492.547058 718.926941,486.229248 717.914307,470.022919 
	C717.374634,461.386597 717.374146,452.706451 717.401245,444.046936 
	C717.461304,424.888214 717.271484,405.714355 717.984436,386.576477 
	C718.578674,370.627563 725.272400,364.148010 741.105774,363.980316 
	C771.930481,363.653839 802.763672,363.663330 833.588440,363.993744 
	C848.687683,364.155579 854.790527,369.852386 856.102234,384.973389 
	C857.064148,396.062042 856.859924,407.267700 856.851562,418.420990 
	C856.838501,435.910553 857.314026,453.450256 856.161987,470.874817 
	C855.064453,487.474548 848.363159,492.803009 831.493530,492.957672 
	C813.163757,493.125732 794.831299,493.001862 776.000000,493.005310 
M737.628662,401.500061 
	C737.628662,425.894653 737.628662,450.289246 737.628662,474.652191 
	C771.080872,474.652191 803.936768,474.652191 836.677246,474.652191 
	C836.677246,443.417145 836.677246,412.526276 836.677246,381.464844 
	C803.669678,381.464844 770.947571,381.464844 737.628662,381.464844 
	C737.628662,387.954132 737.628662,394.227203 737.628662,401.500061 
z"/>
<path fill="#101F4A" opacity="1.000000" stroke="none" 
	d="
M648.316895,472.259674 
	C646.525757,486.519867 641.148987,492.367584 626.816162,492.690582 
	C600.508057,493.283478 574.168030,493.288391 547.859497,492.709595 
	C532.994934,492.382599 526.364441,485.933411 526.032104,470.974396 
	C525.396301,442.352051 525.443420,413.694977 526.085754,385.072021 
	C526.408203,370.706787 533.565613,364.243256 548.017578,364.042358 
	C574.166809,363.678864 600.328308,363.682098 626.477539,364.044861 
	C640.698059,364.242188 646.474731,369.740295 648.109741,383.667297 
	C648.978455,391.066101 648.924133,398.573303 649.305298,406.419830 
	C642.358093,407.821381 635.908813,409.122498 628.767822,410.563141 
	C628.767822,405.354858 628.767822,400.579498 628.767822,395.804108 
	C628.767822,391.169373 628.767822,386.534668 628.767822,381.569580 
	C600.982361,381.569580 573.591003,381.569580 545.802856,381.569580 
	C545.802856,412.502319 545.802856,443.396973 545.802856,474.645081 
	C573.123413,474.645081 600.659363,474.645081 628.643799,474.645081 
	C628.643799,464.253113 628.643799,453.833099 628.643799,442.627319 
	C635.749207,444.187347 642.268677,445.618744 648.389526,446.962616 
	C648.389526,455.546906 648.389526,463.684998 648.316895,472.259674 
z"/>
<path fill="#101F4B" opacity="1.000000" stroke="none" 
	d="
M201.026230,387.015167 
	C204.478180,380.151398 207.611389,373.531677 211.226532,367.186554 
	C212.133926,365.593933 214.541122,364.022095 216.340057,363.923828 
	C222.304169,363.598022 229.427094,361.997101 233.966629,364.606415 
	C238.236298,367.060608 239.875107,374.189850 242.533478,379.333496 
	C261.154205,415.362457 279.739532,451.409698 298.334534,487.451965 
	C299.161682,489.055145 299.973206,490.666351 301.159332,492.995026 
	C293.948059,492.995026 287.239502,493.115234 280.544952,492.863220 
	C279.559814,492.826111 278.326294,491.180695 277.742188,490.012238 
	C273.507111,481.540283 269.326263,473.038452 265.321411,464.455963 
	C264.196716,462.045685 262.912048,461.080994 260.111053,461.095947 
	C235.450851,461.227753 210.789474,461.219513 186.129105,461.106201 
	C183.379974,461.093567 182.015045,461.948700 180.872391,464.438812 
	C177.130875,472.592560 172.902451,480.526855 169.293732,488.735626 
	C167.768188,492.205750 165.845779,493.368347 162.160004,493.088562 
	C157.526840,492.736877 152.846710,493.003845 147.243668,493.003845 
	C165.303696,457.436462 183.094818,422.398682 201.026230,387.015167 
M249.019119,431.412750 
	C240.539978,414.117310 232.060837,396.821899 223.138519,378.622498 
	C212.140259,401.180817 201.639389,422.718964 191.020142,444.499878 
	C212.704971,444.499878 233.720673,444.499878 255.428696,444.499878 
	C253.232758,440.040894 251.276810,436.069183 249.019119,431.412750 
z"/>
<path fill="#0F1E4A" opacity="1.000000" stroke="none" 
	d="
M114.999710,381.229431 
	C90.211349,381.229462 65.922897,381.229462 41.285133,381.229462 
	C41.285133,395.393860 41.285133,409.269531 41.285133,423.579468 
	C58.891041,423.579468 76.481468,423.579468 94.423119,423.579468 
	C94.423119,429.395447 94.423119,434.799591 94.423119,440.752502 
	C76.856468,440.752502 59.156273,440.752502 41.029938,440.752502 
	C41.029938,458.346313 41.029938,475.405182 41.029938,492.729797 
	C34.195354,492.729797 27.786945,492.729797 21.072641,492.729797 
	C21.072641,449.997009 21.072641,407.281860 21.072641,364.168396 
	C58.750488,364.168396 96.607948,364.168396 134.791565,364.168396 
	C134.791565,369.536499 134.791565,375.096680 134.791565,381.229431 
	C128.360397,381.229431 121.930016,381.229431 114.999710,381.229431 
z"/>
<path fill="#14224D" opacity="1.000000" stroke="none" 
	d="
M432.000000,474.989136 
	C444.448303,474.989136 456.396576,474.989136 468.566223,474.989136 
	C468.566223,481.067474 468.566223,486.669098 468.566223,492.641785 
	C431.693329,492.641785 394.827026,492.641785 357.712341,492.641785 
	C357.712341,449.881744 357.712341,407.119843 357.712341,364.052399 
	C364.317047,364.052399 370.891144,364.052399 377.815186,364.052399 
	C377.815186,401.000214 377.815186,437.757812 377.815186,474.989136 
	C395.938782,474.989136 413.719391,474.989136 432.000000,474.989136 
z"/>
<path fill="#FEFEFE" opacity="1.000000" stroke="none" 
	d="
M737.628662,401.000183 
	C737.628662,394.227203 737.628662,387.954132 737.628662,381.464844 
	C770.947571,381.464844 803.669678,381.464844 836.677246,381.464844 
	C836.677246,412.526276 836.677246,443.417145 836.677246,474.652191 
	C803.936768,474.652191 771.080872,474.652191 737.628662,474.652191 
	C737.628662,450.289246 737.628662,425.894653 737.628662,401.000183 
z"/>
<path fill="#FBFBFC" opacity="1.000000" stroke="none" 
	d="
M249.169983,431.755127 
	C251.276810,436.069183 253.232758,440.040894 255.428696,444.499878 
	C233.720673,444.499878 212.704971,444.499878 191.020142,444.499878 
	C201.639389,422.718964 212.140259,401.180817 223.138519,378.622498 
	C232.060837,396.821899 240.539978,414.117310 249.169983,431.755127 
z"/>
</svg>